<svg xmlns="http://www.w3.org/2000/svg" width="805.37" height="118.514" viewBox="0 0 805.37 118.514"><g transform="translate(-1250 2234.673)"><path d="M2217.921-2225.268l27.292,70.69,27.53-70.69h37.319l-50.856,112.45h-28.46l-50.154-112.45Z" transform="translate(-630.804 -6.375)" fill="#aed912"/><path d="M3081.13-2169.041l43.627,56.224H3082.3l-34.531-47.124v47.124h-35.693v-112.45h35.693v47.594l34.76-47.594h42.457Z" transform="translate(-1194.426 -6.375)" fill="#f6f6f6"/><path d="M3424.848-2116.159a67.389,67.389,0,0,1-26.006-4.785,59.487,59.487,0,0,1-19.6-12.828,55.58,55.58,0,0,1-12.369-18.784,60.7,60.7,0,0,1-4.309-22.859,60.742,60.742,0,0,1,4.309-22.864,55.627,55.627,0,0,1,12.369-18.779,59.6,59.6,0,0,1,19.6-12.832,67.462,67.462,0,0,1,26.006-4.781,68.13,68.13,0,0,1,26.246,4.781,59.5,59.5,0,0,1,19.6,12.832,55.593,55.593,0,0,1,12.367,18.779,60.749,60.749,0,0,1,4.318,22.864,60.7,60.7,0,0,1-4.318,22.859,55.546,55.546,0,0,1-12.367,18.784,59.386,59.386,0,0,1-19.6,12.828A68.057,68.057,0,0,1,3424.848-2116.159Zm0-30.564a27.1,27.1,0,0,0,11.084-2.213,24.214,24.214,0,0,0,8.514-6.183,29.968,29.968,0,0,0,5.488-9.1,30.814,30.814,0,0,0,1.98-11.2,31.132,31.132,0,0,0-1.98-11.082,28.185,28.185,0,0,0-5.488-9.1,26.429,26.429,0,0,0-8.514-6.185,25.986,25.986,0,0,0-11.084-2.33,25.182,25.182,0,0,0-10.959,2.33,26.884,26.884,0,0,0-8.4,6.185,26.6,26.6,0,0,0-5.363,9.1,32.644,32.644,0,0,0-1.865,11.082,32.317,32.317,0,0,0,1.865,11.2,28.174,28.174,0,0,0,5.363,9.1,24.564,24.564,0,0,0,8.4,6.183A26.253,26.253,0,0,0,3424.848-2146.724Z" transform="translate(-1432.007 0)" fill="#f6f6f6"/><path d="M1949.765-2112.812l-27.293-70.69-27.53,70.69h-37.32l50.857-112.448h28.462l50.153,112.448Z" transform="translate(-411.877 -6.381)" fill="#aed912"/><path d="M1573.97-2225.268l27.293,70.69,27.531-70.69h37.319l-50.856,112.45h-28.463l-50.152-112.45Z" transform="translate(-194.301 -6.375)" fill="#aed912"/><path d="M1287.33-2225.26l27.292,70.69,27.53-70.69h37.32l-50.857,112.448h-28.461L1250-2225.26Z" transform="translate(0 -6.381)" fill="#2da64e"/><path d="M2633.947-2199.569l11.621-25.691h-93.327l-50.857,112.45h37.32v0h56.007l11.618-25.691h-55.937l8.049-17.687h55.889l11.62-25.69h-55.818l8.046-17.687Z" transform="translate(-848.253 -6.38)" fill="#aed912"/><path d="M2871.132-1967.484l19.619-43.379v43.379Z" transform="translate(-1098.887 -151.71)" fill="#75c8a9"/></g></svg>